<?xml version="1.0" encoding="us-ascii" standalone="no"?><svg xmlns="http://www.w3.org/2000/svg" xmlns:xlink="http://www.w3.org/1999/xlink" contentStyleType="text/css" height="426px" preserveAspectRatio="none" style="width:719px;height:426px;background:#FFFFFF;" version="1.1" viewBox="0 0 719 426" width="719px" zoomAndPan="magnify"><defs/><g><text fill="#000000" font-family="sans-serif" font-size="14" font-weight="bold" lengthAdjust="spacing" textLength="420" x="142.75" y="24.9659">smart-home-device microservices Management Code Diagram</text><!--class DeviceController--><g id="elem_DeviceController"><rect fill="#F1F1F1" height="48" id="DeviceController" rx="2.5" ry="2.5" style="stroke:#181818;stroke-width:0.5;" width="143" x="292" y="47.0679"/><ellipse cx="307" cy="63.0679" fill="#ADD1B2" rx="11" ry="11" style="stroke:#181818;stroke-width:1.0;"/><path d="M307.1094,58.5992 Q306.1875,58.5992 305.4531,58.9117 Q304.7344,59.2242 304.2344,59.8179 Q303.7344,60.396 303.4531,61.271 Q303.1875,62.146 303.1875,63.2398 Q303.1875,64.6773 303.625,65.7242 Q304.0781,66.771 304.9219,67.3179 Q305.7813,67.8648 307.0938,67.8648 Q307.875,67.8648 308.5625,67.7398 Q309.2656,67.5992 310.2656,67.2867 L310.2656,69.1617 Q309.4063,69.4898 308.6406,69.6148 Q307.8906,69.7398 306.875,69.7398 Q304.9531,69.7398 303.6406,68.9429 Q302.3438,68.1304 301.6875,66.6617 Q301.0313,65.1773 301.0313,63.2085 Q301.0313,61.7867 301.4219,60.6148 Q301.8281,59.4273 302.6094,58.5523 Q303.3906,57.6773 304.5313,57.2085 Q305.6719,56.7242 307.1406,56.7242 Q308.0938,56.7242 308.9844,56.9273 Q309.8906,57.1148 310.8281,57.5835 L310,59.3648 Q309.2188,58.9898 308.5625,58.8023 Q307.9063,58.5992 307.1094,58.5992 Z " fill="#000000"/><text fill="#000000" font-family="sans-serif" font-size="14" lengthAdjust="spacing" textLength="111" x="321" y="68.4999">DeviceController</text><line style="stroke:#181818;stroke-width:0.5;" x1="293" x2="434" y1="79.0679" y2="79.0679"/><line style="stroke:#181818;stroke-width:0.5;" x1="293" x2="434" y1="87.0679" y2="87.0679"/></g><!--class DeviceService--><g id="elem_DeviceService"><rect fill="#F1F1F1" height="48" id="DeviceService" rx="2.5" ry="2.5" style="stroke:#181818;stroke-width:0.5;" width="124" x="301.5" y="155.0679"/><ellipse cx="316.5" cy="171.0679" fill="#ADD1B2" rx="11" ry="11" style="stroke:#181818;stroke-width:1.0;"/><path d="M316.6094,166.5992 Q315.6875,166.5992 314.9531,166.9117 Q314.2344,167.2242 313.7344,167.8179 Q313.2344,168.396 312.9531,169.271 Q312.6875,170.146 312.6875,171.2398 Q312.6875,172.6773 313.125,173.7242 Q313.5781,174.771 314.4219,175.3179 Q315.2813,175.8648 316.5938,175.8648 Q317.375,175.8648 318.0625,175.7398 Q318.7656,175.5992 319.7656,175.2867 L319.7656,177.1617 Q318.9063,177.4898 318.1406,177.6148 Q317.3906,177.7398 316.375,177.7398 Q314.4531,177.7398 313.1406,176.9429 Q311.8438,176.1304 311.1875,174.6617 Q310.5313,173.1773 310.5313,171.2085 Q310.5313,169.7867 310.9219,168.6148 Q311.3281,167.4273 312.1094,166.5523 Q312.8906,165.6773 314.0313,165.2085 Q315.1719,164.7242 316.6406,164.7242 Q317.5938,164.7242 318.4844,164.9273 Q319.3906,165.1148 320.3281,165.5835 L319.5,167.3648 Q318.7188,166.9898 318.0625,166.8023 Q317.4063,166.5992 316.6094,166.5992 Z " fill="#000000"/><text fill="#000000" font-family="sans-serif" font-size="14" lengthAdjust="spacing" textLength="92" x="330.5" y="176.4999">DeviceService</text><line style="stroke:#181818;stroke-width:0.5;" x1="302.5" x2="424.5" y1="187.0679" y2="187.0679"/><line style="stroke:#181818;stroke-width:0.5;" x1="302.5" x2="424.5" y1="195.0679" y2="195.0679"/></g><!--class ExceptionHandler--><g id="elem_ExceptionHandler"><rect fill="#F1F1F1" height="48" id="ExceptionHandler" rx="2.5" ry="2.5" style="stroke:#181818;stroke-width:0.5;" width="151" x="7" y="263.0679"/><ellipse cx="22" cy="279.0679" fill="#ADD1B2" rx="11" ry="11" style="stroke:#181818;stroke-width:1.0;"/><path d="M22.1094,274.5992 Q21.1875,274.5992 20.4531,274.9117 Q19.7344,275.2242 19.2344,275.8179 Q18.7344,276.396 18.4531,277.271 Q18.1875,278.146 18.1875,279.2398 Q18.1875,280.6773 18.625,281.7242 Q19.0781,282.771 19.9219,283.3179 Q20.7813,283.8648 22.0938,283.8648 Q22.875,283.8648 23.5625,283.7398 Q24.2656,283.5992 25.2656,283.2867 L25.2656,285.1617 Q24.4063,285.4898 23.6406,285.6148 Q22.8906,285.7398 21.875,285.7398 Q19.9531,285.7398 18.6406,284.9429 Q17.3438,284.1304 16.6875,282.6617 Q16.0313,281.1773 16.0313,279.2085 Q16.0313,277.7867 16.4219,276.6148 Q16.8281,275.4273 17.6094,274.5523 Q18.3906,273.6773 19.5313,273.2085 Q20.6719,272.7242 22.1406,272.7242 Q23.0938,272.7242 23.9844,272.9273 Q24.8906,273.1148 25.8281,273.5835 L25,275.3648 Q24.2188,274.9898 23.5625,274.8023 Q22.9063,274.5992 22.1094,274.5992 Z " fill="#000000"/><text fill="#000000" font-family="sans-serif" font-size="14" lengthAdjust="spacing" textLength="119" x="36" y="284.4999">ExceptionHandler</text><line style="stroke:#181818;stroke-width:0.5;" x1="8" x2="157" y1="295.0679" y2="295.0679"/><line style="stroke:#181818;stroke-width:0.5;" x1="8" x2="157" y1="303.0679" y2="303.0679"/></g><!--class DeviceNotFound--><g id="elem_DeviceNotFound"><rect fill="#F1F1F1" height="48" id="DeviceNotFound" rx="2.5" ry="2.5" style="stroke:#181818;stroke-width:0.5;" width="142" x="11.5" y="371.0679"/><ellipse cx="26.5" cy="387.0679" fill="#ADD1B2" rx="11" ry="11" style="stroke:#181818;stroke-width:1.0;"/><path d="M26.6094,382.5992 Q25.6875,382.5992 24.9531,382.9117 Q24.2344,383.2242 23.7344,383.8179 Q23.2344,384.396 22.9531,385.271 Q22.6875,386.146 22.6875,387.2398 Q22.6875,388.6773 23.125,389.7242 Q23.5781,390.771 24.4219,391.3179 Q25.2813,391.8648 26.5938,391.8648 Q27.375,391.8648 28.0625,391.7398 Q28.7656,391.5992 29.7656,391.2867 L29.7656,393.1617 Q28.9063,393.4898 28.1406,393.6148 Q27.3906,393.7398 26.375,393.7398 Q24.4531,393.7398 23.1406,392.9429 Q21.8438,392.1304 21.1875,390.6617 Q20.5313,389.1773 20.5313,387.2085 Q20.5313,385.7867 20.9219,384.6148 Q21.3281,383.4273 22.1094,382.5523 Q22.8906,381.6773 24.0313,381.2085 Q25.1719,380.7242 26.6406,380.7242 Q27.5938,380.7242 28.4844,380.9273 Q29.3906,381.1148 30.3281,381.5835 L29.5,383.3648 Q28.7188,382.9898 28.0625,382.8023 Q27.4063,382.5992 26.6094,382.5992 Z " fill="#000000"/><text fill="#000000" font-family="sans-serif" font-size="14" lengthAdjust="spacing" textLength="110" x="40.5" y="392.4999">DeviceNotFound</text><line style="stroke:#181818;stroke-width:0.5;" x1="12.5" x2="152.5" y1="403.0679" y2="403.0679"/><line style="stroke:#181818;stroke-width:0.5;" x1="12.5" x2="152.5" y1="411.0679" y2="411.0679"/></g><!--class DeviceRepository--><g id="elem_DeviceRepository"><rect fill="#F1F1F1" height="48" id="DeviceRepository" rx="2.5" ry="2.5" style="stroke:#181818;stroke-width:0.5;" width="147" x="193" y="263.0679"/><ellipse cx="208" cy="279.0679" fill="#ADD1B2" rx="11" ry="11" style="stroke:#181818;stroke-width:1.0;"/><path d="M208.1094,274.5992 Q207.1875,274.5992 206.4531,274.9117 Q205.7344,275.2242 205.2344,275.8179 Q204.7344,276.396 204.4531,277.271 Q204.1875,278.146 204.1875,279.2398 Q204.1875,280.6773 204.625,281.7242 Q205.0781,282.771 205.9219,283.3179 Q206.7813,283.8648 208.0938,283.8648 Q208.875,283.8648 209.5625,283.7398 Q210.2656,283.5992 211.2656,283.2867 L211.2656,285.1617 Q210.4063,285.4898 209.6406,285.6148 Q208.8906,285.7398 207.875,285.7398 Q205.9531,285.7398 204.6406,284.9429 Q203.3438,284.1304 202.6875,282.6617 Q202.0313,281.1773 202.0313,279.2085 Q202.0313,277.7867 202.4219,276.6148 Q202.8281,275.4273 203.6094,274.5523 Q204.3906,273.6773 205.5313,273.2085 Q206.6719,272.7242 208.1406,272.7242 Q209.0938,272.7242 209.9844,272.9273 Q210.8906,273.1148 211.8281,273.5835 L211,275.3648 Q210.2188,274.9898 209.5625,274.8023 Q208.9063,274.5992 208.1094,274.5992 Z " fill="#000000"/><text fill="#000000" font-family="sans-serif" font-size="14" lengthAdjust="spacing" textLength="115" x="222" y="284.4999">DeviceRepository</text><line style="stroke:#181818;stroke-width:0.5;" x1="194" x2="339" y1="295.0679" y2="295.0679"/><line style="stroke:#181818;stroke-width:0.5;" x1="194" x2="339" y1="303.0679" y2="303.0679"/></g><!--class ManagerDeviceState--><g id="elem_ManagerDeviceState"><rect fill="#F1F1F1" height="48" id="ManagerDeviceState" rx="2.5" ry="2.5" style="stroke:#181818;stroke-width:0.5;" width="171" x="375" y="263.0679"/><ellipse cx="390" cy="279.0679" fill="#ADD1B2" rx="11" ry="11" style="stroke:#181818;stroke-width:1.0;"/><path d="M390.1094,274.5992 Q389.1875,274.5992 388.4531,274.9117 Q387.7344,275.2242 387.2344,275.8179 Q386.7344,276.396 386.4531,277.271 Q386.1875,278.146 386.1875,279.2398 Q386.1875,280.6773 386.625,281.7242 Q387.0781,282.771 387.9219,283.3179 Q388.7813,283.8648 390.0938,283.8648 Q390.875,283.8648 391.5625,283.7398 Q392.2656,283.5992 393.2656,283.2867 L393.2656,285.1617 Q392.4063,285.4898 391.6406,285.6148 Q390.8906,285.7398 389.875,285.7398 Q387.9531,285.7398 386.6406,284.9429 Q385.3438,284.1304 384.6875,282.6617 Q384.0313,281.1773 384.0313,279.2085 Q384.0313,277.7867 384.4219,276.6148 Q384.8281,275.4273 385.6094,274.5523 Q386.3906,273.6773 387.5313,273.2085 Q388.6719,272.7242 390.1406,272.7242 Q391.0938,272.7242 391.9844,272.9273 Q392.8906,273.1148 393.8281,273.5835 L393,275.3648 Q392.2188,274.9898 391.5625,274.8023 Q390.9063,274.5992 390.1094,274.5992 Z " fill="#000000"/><text fill="#000000" font-family="sans-serif" font-size="14" lengthAdjust="spacing" textLength="139" x="404" y="284.4999">ManagerDeviceState</text><line style="stroke:#181818;stroke-width:0.5;" x1="376" x2="545" y1="295.0679" y2="295.0679"/><line style="stroke:#181818;stroke-width:0.5;" x1="376" x2="545" y1="303.0679" y2="303.0679"/></g><!--class RestTemplateAPI--><g id="elem_RestTemplateAPI"><rect fill="#F1F1F1" height="48" id="RestTemplateAPI" rx="2.5" ry="2.5" style="stroke:#181818;stroke-width:0.5;" width="146" x="387.5" y="371.0679"/><ellipse cx="402.5" cy="387.0679" fill="#ADD1B2" rx="11" ry="11" style="stroke:#181818;stroke-width:1.0;"/><path d="M402.6094,382.5992 Q401.6875,382.5992 400.9531,382.9117 Q400.2344,383.2242 399.7344,383.8179 Q399.2344,384.396 398.9531,385.271 Q398.6875,386.146 398.6875,387.2398 Q398.6875,388.6773 399.125,389.7242 Q399.5781,390.771 400.4219,391.3179 Q401.2813,391.8648 402.5938,391.8648 Q403.375,391.8648 404.0625,391.7398 Q404.7656,391.5992 405.7656,391.2867 L405.7656,393.1617 Q404.9063,393.4898 404.1406,393.6148 Q403.3906,393.7398 402.375,393.7398 Q400.4531,393.7398 399.1406,392.9429 Q397.8438,392.1304 397.1875,390.6617 Q396.5313,389.1773 396.5313,387.2085 Q396.5313,385.7867 396.9219,384.6148 Q397.3281,383.4273 398.1094,382.5523 Q398.8906,381.6773 400.0313,381.2085 Q401.1719,380.7242 402.6406,380.7242 Q403.5938,380.7242 404.4844,380.9273 Q405.3906,381.1148 406.3281,381.5835 L405.5,383.3648 Q404.7188,382.9898 404.0625,382.8023 Q403.4063,382.5992 402.6094,382.5992 Z " fill="#000000"/><text fill="#000000" font-family="sans-serif" font-size="14" lengthAdjust="spacing" textLength="114" x="416.5" y="392.4999">RestTemplateAPI</text><line style="stroke:#181818;stroke-width:0.5;" x1="388.5" x2="532.5" y1="403.0679" y2="403.0679"/><line style="stroke:#181818;stroke-width:0.5;" x1="388.5" x2="532.5" y1="411.0679" y2="411.0679"/></g><!--class KafkaTemplate--><g id="elem_KafkaTemplate"><rect fill="#F1F1F1" height="48" id="KafkaTemplate" rx="2.5" ry="2.5" style="stroke:#181818;stroke-width:0.5;" width="132" x="580.5" y="263.0679"/><ellipse cx="595.5" cy="279.0679" fill="#ADD1B2" rx="11" ry="11" style="stroke:#181818;stroke-width:1.0;"/><path d="M595.6094,274.5992 Q594.6875,274.5992 593.9531,274.9117 Q593.2344,275.2242 592.7344,275.8179 Q592.2344,276.396 591.9531,277.271 Q591.6875,278.146 591.6875,279.2398 Q591.6875,280.6773 592.125,281.7242 Q592.5781,282.771 593.4219,283.3179 Q594.2813,283.8648 595.5938,283.8648 Q596.375,283.8648 597.0625,283.7398 Q597.7656,283.5992 598.7656,283.2867 L598.7656,285.1617 Q597.9063,285.4898 597.1406,285.6148 Q596.3906,285.7398 595.375,285.7398 Q593.4531,285.7398 592.1406,284.9429 Q590.8438,284.1304 590.1875,282.6617 Q589.5313,281.1773 589.5313,279.2085 Q589.5313,277.7867 589.9219,276.6148 Q590.3281,275.4273 591.1094,274.5523 Q591.8906,273.6773 593.0313,273.2085 Q594.1719,272.7242 595.6406,272.7242 Q596.5938,272.7242 597.4844,272.9273 Q598.3906,273.1148 599.3281,273.5835 L598.5,275.3648 Q597.7188,274.9898 597.0625,274.8023 Q596.4063,274.5992 595.6094,274.5992 Z " fill="#000000"/><text fill="#000000" font-family="sans-serif" font-size="14" lengthAdjust="spacing" textLength="100" x="609.5" y="284.4999">KafkaTemplate</text><line style="stroke:#181818;stroke-width:0.5;" x1="581.5" x2="711.5" y1="295.0679" y2="295.0679"/><line style="stroke:#181818;stroke-width:0.5;" x1="581.5" x2="711.5" y1="303.0679" y2="303.0679"/></g><!--reverse link DeviceController to DeviceService--><g id="link_DeviceController_DeviceService"><path codeLine="3" d="M363.5,107.3279 C363.5,125.0079 363.5,137.1979 363.5,154.8579 " fill="none" id="DeviceController-backto-DeviceService" style="stroke:#181818;stroke-width:1.0;"/><polygon fill="none" points="363.5,95.3279,359.5,101.3279,363.5,107.3279,367.5,101.3279,363.5,95.3279" style="stroke:#181818;stroke-width:1.0;"/></g><!--link DeviceService to ExceptionHandler--><g id="link_DeviceService_ExceptionHandler"><path codeLine="4" d="M301.49,203.4579 C254.78,221.0779 196.6437,243.0097 149.9737,260.6197 " fill="none" id="DeviceService-to-ExceptionHandler" style="stroke:#181818;stroke-width:1.0;stroke-dasharray:7.0,7.0;"/><polygon fill="#181818" points="144.36,262.7379,154.1926,263.3031,149.0381,260.9727,151.3684,255.8182,144.36,262.7379" style="stroke:#181818;stroke-width:1.0;"/></g><!--link ExceptionHandler to DeviceNotFound--><g id="link_ExceptionHandler_DeviceNotFound"><path codeLine="5" d="M82.5,311.3279 C82.5,329.0079 82.5,347.1979 82.5,364.8579 " fill="none" id="ExceptionHandler-to-DeviceNotFound" style="stroke:#181818;stroke-width:1.0;stroke-dasharray:7.0,7.0;"/><polygon fill="#181818" points="82.5,370.8579,86.5,361.8579,82.5,365.8579,78.5,361.8579,82.5,370.8579" style="stroke:#181818;stroke-width:1.0;"/></g><!--reverse link DeviceService to DeviceRepository--><g id="link_DeviceService_DeviceRepository"><path codeLine="6" d="M334.1113,212.1829 C317.9413,229.8629 303.9,245.1979 287.74,262.8579 " fill="none" id="DeviceService-backto-DeviceRepository" style="stroke:#181818;stroke-width:1.0;"/><polygon fill="none" points="342.21,203.3279,335.209,205.0558,334.1113,212.1829,341.1123,210.455,342.21,203.3279" style="stroke:#181818;stroke-width:1.0;"/></g><!--reverse link DeviceService to ManagerDeviceState--><g id="link_DeviceService_ManagerDeviceState"><path codeLine="7" d="M392.8887,212.1829 C409.0587,229.8629 423.1,245.1979 439.26,262.8579 " fill="none" id="DeviceService-backto-ManagerDeviceState" style="stroke:#181818;stroke-width:1.0;"/><polygon fill="none" points="384.79,203.3279,385.8877,210.455,392.8887,212.1829,391.791,205.0558,384.79,203.3279" style="stroke:#181818;stroke-width:1.0;"/></g><!--reverse link ManagerDeviceState to RestTemplateAPI--><g id="link_ManagerDeviceState_RestTemplateAPI"><path codeLine="8" d="M460.5,323.3279 C460.5,341.0079 460.5,353.1979 460.5,370.8579 " fill="none" id="ManagerDeviceState-backto-RestTemplateAPI" style="stroke:#181818;stroke-width:1.0;"/><polygon fill="none" points="460.5,311.3279,456.5,317.3279,460.5,323.3279,464.5,317.3279,460.5,311.3279" style="stroke:#181818;stroke-width:1.0;"/></g><!--reverse link DeviceService to KafkaTemplate--><g id="link_DeviceService_KafkaTemplate"><path codeLine="9" d="M437.1975,207.6672 C484.2375,225.2872 537.2,245.1279 584.2,262.7379 " fill="none" id="DeviceService-backto-KafkaTemplate" style="stroke:#181818;stroke-width:1.0;"/><polygon fill="none" points="425.96,203.4579,430.1757,209.3084,437.1975,207.6672,432.9819,201.8167,425.96,203.4579" style="stroke:#181818;stroke-width:1.0;"/></g><!--SRC=[ROvH2i8m38RVUufSe3k289kYY2BJ2uGrpcBRZ3QAtjwvAkBSOxvy_v-85KUGF4RHP_Qa3TriG-1j4pbHV0q9jXYm9Kz1e6H3K5bi8tgbgi4kEKXavoW2QmqP7d9O_KnG53DOt1lgn79OOJ1zI8t1OENSZcN9rs16DTypDNMSh71yJ2Zvx_XU20gfVpIODIKvakzS3-RxzKJN1ayN_2Zg2G00]--></g></svg>