<?xml version="1.0" encoding="us-ascii" standalone="no"?><svg xmlns="http://www.w3.org/2000/svg" xmlns:xlink="http://www.w3.org/1999/xlink" contentStyleType="text/css" height="213.6px" preserveAspectRatio="none" style="width:574px;height:213px;background:#FFFFFF;" version="1.1" viewBox="0 0 574 213" width="574.8px" zoomAndPan="magnify"><defs/><g><text fill="#000000" font-family="sans-serif" font-size="16.8" font-weight="bold" lengthAdjust="spacing" textLength="399.6" x="79.2" y="29.9591">SmartHomeMonolith Management Code Diagram</text><!--class HeatingSystem--><g id="elem_HeatingSystem"><rect codeLine="7" fill="#F1F1F1" height="149.126" id="HeatingSystem" rx="3" ry="3" style="stroke:#181818;stroke-width:0.6;" width="258" x="8.4" y="56.4815"/><ellipse cx="71.7" cy="75.6815" fill="#ADD1B2" rx="13.2" ry="13.2" style="stroke:#181818;stroke-width:1.2;"/><path d="M71.8313,70.319 Q70.725,70.319 69.8438,70.694 Q68.9813,71.069 68.3813,71.7815 Q67.7813,72.4753 67.4438,73.5253 Q67.125,74.5753 67.125,75.8878 Q67.125,77.6128 67.65,78.869 Q68.1938,80.1253 69.2063,80.7815 Q70.2375,81.4378 71.8125,81.4378 Q72.75,81.4378 73.575,81.2878 Q74.4188,81.119 75.6187,80.744 L75.6187,82.994 Q74.5875,83.3878 73.6688,83.5378 Q72.7688,83.6878 71.55,83.6878 Q69.2437,83.6878 67.6688,82.7315 Q66.1125,81.7565 65.325,79.994 Q64.5375,78.2128 64.5375,75.8503 Q64.5375,74.144 65.0063,72.7378 Q65.4937,71.3128 66.4312,70.2628 Q67.3687,69.2128 68.7375,68.6503 Q70.1063,68.069 71.8687,68.069 Q73.0125,68.069 74.0813,68.3128 Q75.1688,68.5378 76.2938,69.1003 L75.3,71.2378 Q74.3625,70.7878 73.575,70.5628 Q72.7875,70.319 71.8313,70.319 Z " fill="#000000"/><text fill="#000000" font-family="sans-serif" font-size="16.8" lengthAdjust="spacing" textLength="121.2" x="96.3" y="82.1999">HeatingSystem</text><line style="stroke:#181818;stroke-width:0.6;" x1="9.6" x2="265.2" y1="94.8815" y2="94.8815"/><ellipse cx="21.6" cy="112.9223" fill="none" rx="3.6" ry="3.6" style="stroke:#038048;stroke-width:1.2;"/><text fill="#000000" font-family="sans-serif" font-size="16.8" lengthAdjust="spacing" textLength="39.6" x="32.4" y="117.6406">Long</text><text fill="#000000" font-family="sans-serif" font-size="16.8" lengthAdjust="spacing" textLength="4.8" x="72" y="117.6406">&#160;</text><text fill="#000000" font-family="sans-serif" font-size="16.8" lengthAdjust="spacing" textLength="15.6" x="76.8" y="117.6406">id</text><ellipse cx="21.6" cy="135.8038" fill="none" rx="3.6" ry="3.6" style="stroke:#038048;stroke-width:1.2;"/><text fill="#000000" font-family="sans-serif" font-size="16.8" lengthAdjust="spacing" textLength="64.8" x="32.4" y="140.5221">boolean</text><text fill="#000000" font-family="sans-serif" font-size="16.8" lengthAdjust="spacing" textLength="4.8" x="97.2" y="140.5221">&#160;</text><text fill="#000000" font-family="sans-serif" font-size="16.8" lengthAdjust="spacing" textLength="37.2" x="102" y="140.5221">isOn</text><ellipse cx="21.6" cy="158.6853" fill="none" rx="3.6" ry="3.6" style="stroke:#038048;stroke-width:1.2;"/><text fill="#000000" font-family="sans-serif" font-size="16.8" lengthAdjust="spacing" textLength="56.4" x="32.4" y="163.4036">double</text><text fill="#000000" font-family="sans-serif" font-size="16.8" lengthAdjust="spacing" textLength="4.8" x="88.8" y="163.4036">&#160;</text><text fill="#000000" font-family="sans-serif" font-size="16.8" lengthAdjust="spacing" textLength="154.8" x="93.6" y="163.4036">targetTemperature</text><ellipse cx="21.6" cy="181.5668" fill="none" rx="3.6" ry="3.6" style="stroke:#038048;stroke-width:1.2;"/><text fill="#000000" font-family="sans-serif" font-size="16.8" lengthAdjust="spacing" textLength="56.4" x="32.4" y="186.2851">double</text><text fill="#000000" font-family="sans-serif" font-size="16.8" lengthAdjust="spacing" textLength="4.8" x="88.8" y="186.2851">&#160;</text><text fill="#000000" font-family="sans-serif" font-size="16.8" lengthAdjust="spacing" textLength="165.6" x="93.6" y="186.2851">currentTemperature</text><line style="stroke:#181818;stroke-width:0.6;" x1="9.6" x2="265.2" y1="196.0075" y2="196.0075"/></g><!--class TemperatureSensor--><g id="elem_TemperatureSensor"><rect codeLine="14" fill="#F1F1F1" height="126.2445" id="TemperatureSensor" rx="3" ry="3" style="stroke:#181818;stroke-width:0.6;" width="258" x="308.4" y="67.9175"/><ellipse cx="352.86" cy="87.1175" fill="#ADD1B2" rx="13.2" ry="13.2" style="stroke:#181818;stroke-width:1.2;"/><path d="M352.9913,81.755 Q351.885,81.755 351.0038,82.13 Q350.1413,82.505 349.5413,83.2175 Q348.9413,83.9113 348.6038,84.9613 Q348.285,86.0113 348.285,87.3238 Q348.285,89.0488 348.81,90.305 Q349.3538,91.5613 350.3663,92.2175 Q351.3975,92.8738 352.9725,92.8738 Q353.91,92.8738 354.735,92.7238 Q355.5788,92.555 356.7788,92.18 L356.7788,94.43 Q355.7475,94.8238 354.8288,94.9738 Q353.9288,95.1238 352.71,95.1238 Q350.4038,95.1238 348.8288,94.1675 Q347.2725,93.1925 346.485,91.43 Q345.6975,89.6488 345.6975,87.2863 Q345.6975,85.58 346.1663,84.1738 Q346.6538,82.7488 347.5913,81.6988 Q348.5288,80.6488 349.8975,80.0863 Q351.2663,79.505 353.0288,79.505 Q354.1725,79.505 355.2413,79.7488 Q356.3288,79.9738 357.4538,80.5363 L356.46,82.6738 Q355.5225,82.2238 354.735,81.9988 Q353.9475,81.755 352.9913,81.755 Z " fill="#000000"/><text fill="#000000" font-family="sans-serif" font-size="16.8" lengthAdjust="spacing" textLength="160.8" x="375.54" y="93.6359">TemperatureSensor</text><line style="stroke:#181818;stroke-width:0.6;" x1="309.6" x2="565.2" y1="106.3175" y2="106.3175"/><ellipse cx="321.6" cy="124.3583" fill="none" rx="3.6" ry="3.6" style="stroke:#038048;stroke-width:1.2;"/><text fill="#000000" font-family="sans-serif" font-size="16.8" lengthAdjust="spacing" textLength="39.6" x="332.4" y="129.0766">Long</text><text fill="#000000" font-family="sans-serif" font-size="16.8" lengthAdjust="spacing" textLength="4.8" x="372" y="129.0766">&#160;</text><text fill="#000000" font-family="sans-serif" font-size="16.8" lengthAdjust="spacing" textLength="15.6" x="376.8" y="129.0766">id</text><ellipse cx="321.6" cy="147.2398" fill="none" rx="3.6" ry="3.6" style="stroke:#038048;stroke-width:1.2;"/><text fill="#000000" font-family="sans-serif" font-size="16.8" lengthAdjust="spacing" textLength="56.4" x="332.4" y="151.9581">double</text><text fill="#000000" font-family="sans-serif" font-size="16.8" lengthAdjust="spacing" textLength="4.8" x="388.8" y="151.9581">&#160;</text><text fill="#000000" font-family="sans-serif" font-size="16.8" lengthAdjust="spacing" textLength="165.6" x="393.6" y="151.9581">currentTemperature</text><ellipse cx="321.6" cy="170.1213" fill="none" rx="3.6" ry="3.6" style="stroke:#038048;stroke-width:1.2;"/><text fill="#000000" font-family="sans-serif" font-size="16.8" lengthAdjust="spacing" textLength="117.6" x="332.4" y="174.8396">LocalDateTime</text><text fill="#000000" font-family="sans-serif" font-size="16.8" lengthAdjust="spacing" textLength="4.8" x="450" y="174.8396">&#160;</text><text fill="#000000" font-family="sans-serif" font-size="16.8" lengthAdjust="spacing" textLength="98.4" x="454.8" y="174.8396">lastUpdated</text><line style="stroke:#181818;stroke-width:0.6;" x1="309.6" x2="565.2" y1="184.562" y2="184.562"/></g><!--SRC=[TOwnQWD134Jx_GgbDfoR_C6vS16Jukmww7R5Hh2IZbrj4OB_FMj3u22aqsY6D-FiXM0Hh7useOkf5VPFkA1Y9Y5rc2qHd1XpHGd1RGCtMCtT119NYiwc8Romnj97T9gEApQEn_drOpRPJ0TbshgK46B1rk1CwAnv-MfE0jy1uF1cce7JurpD2g42jtTzw6Hz7HiTQoQ_acnKqNkbdHTxhQDaRzv_otRFXRHP_LFuF-IPYrXEw7Hb8HX4lsrfo1JkuGS0]--></g></svg>