<?xml version="1.0" encoding="us-ascii" standalone="no"?><svg xmlns="http://www.w3.org/2000/svg" xmlns:xlink="http://www.w3.org/1999/xlink" contentStyleType="text/css" height="381.6px" preserveAspectRatio="none" style="width:1443px;height:381px;background:#FFFFFF;" version="1.1" viewBox="0 0 1443 381" width="1443.2px" zoomAndPan="magnify"><defs/><g><text fill="#000000" font-family="sans-serif" font-size="11.2" font-weight="bold" lengthAdjust="spacing" textLength="266.4" x="582.8" y="19.9727">SmartHomeMonolith Management Code Diagram</text><!--class User--><g id="elem_User"><rect codeLine="3" fill="#F1F1F1" height="175.689" id="User" rx="2" ry="2" style="stroke:#181818;stroke-width:0.4000000000000001;" width="117.6" x="30.8" y="37.6543"/><ellipse cx="73.8" cy="50.4543" fill="#ADD1B2" rx="8.8" ry="8.8" style="stroke:#181818;stroke-width:0.8000000000000002;"/><path d="M73.8875,46.8793 Q73.15,46.8793 72.5625,47.1293 Q71.9875,47.3793 71.5875,47.8543 Q71.1875,48.3168 70.9625,49.0168 Q70.75,49.7168 70.75,50.5918 Q70.75,51.7418 71.1,52.5793 Q71.4625,53.4168 72.1375,53.8543 Q72.825,54.2918 73.875,54.2918 Q74.5,54.2918 75.05,54.1918 Q75.6125,54.0793 76.4125,53.8293 L76.4125,55.3293 Q75.725,55.5918 75.1125,55.6918 Q74.5125,55.7918 73.7,55.7918 Q72.1625,55.7918 71.1125,55.1543 Q70.075,54.5043 69.55,53.3293 Q69.025,52.1418 69.025,50.5668 Q69.025,49.4293 69.3375,48.4918 Q69.6625,47.5418 70.2875,46.8418 Q70.9125,46.1418 71.825,45.7668 Q72.7375,45.3793 73.9125,45.3793 Q74.675,45.3793 75.3875,45.5418 Q76.1125,45.6918 76.8625,46.0668 L76.2,47.4918 Q75.575,47.1918 75.05,47.0418 Q74.525,46.8793 73.8875,46.8793 Z " fill="#000000"/><text fill="#000000" font-family="sans-serif" font-size="11.2" lengthAdjust="spacing" textLength="24.8" x="90.2" y="54.7999">User</text><line style="stroke:#181818;stroke-width:0.4000000000000001;" x1="31.6" x2="147.6" y1="63.2543" y2="63.2543"/><ellipse cx="39.6" cy="75.2815" fill="none" rx="2.4" ry="2.4" style="stroke:#038048;stroke-width:0.8000000000000002;"/><text fill="#000000" font-family="sans-serif" font-size="11.2" lengthAdjust="spacing" textLength="40" x="46.8" y="78.4271">Long id</text><ellipse cx="39.6" cy="90.5358" fill="none" rx="2.4" ry="2.4" style="stroke:#038048;stroke-width:0.8000000000000002;"/><text fill="#000000" font-family="sans-serif" font-size="11.2" lengthAdjust="spacing" textLength="66.4" x="46.8" y="93.6814">String name</text><ellipse cx="39.6" cy="105.7902" fill="none" rx="2.4" ry="2.4" style="stroke:#038048;stroke-width:0.8000000000000002;"/><text fill="#000000" font-family="sans-serif" font-size="11.2" lengthAdjust="spacing" textLength="84" x="46.8" y="108.9357">String surname</text><ellipse cx="39.6" cy="121.0445" fill="none" rx="2.4" ry="2.4" style="stroke:#038048;stroke-width:0.8000000000000002;"/><text fill="#000000" font-family="sans-serif" font-size="11.2" lengthAdjust="spacing" textLength="96.8" x="46.8" y="124.1901">String patronymic</text><ellipse cx="39.6" cy="136.2988" fill="none" rx="2.4" ry="2.4" style="stroke:#038048;stroke-width:0.8000000000000002;"/><text fill="#000000" font-family="sans-serif" font-size="11.2" lengthAdjust="spacing" textLength="70.4" x="46.8" y="139.4444">String phone</text><ellipse cx="39.6" cy="151.5532" fill="none" rx="2.4" ry="2.4" style="stroke:#038048;stroke-width:0.8000000000000002;"/><text fill="#000000" font-family="sans-serif" font-size="11.2" lengthAdjust="spacing" textLength="63.2" x="46.8" y="154.6987">String login</text><ellipse cx="39.6" cy="166.8075" fill="none" rx="2.4" ry="2.4" style="stroke:#038048;stroke-width:0.8000000000000002;"/><text fill="#000000" font-family="sans-serif" font-size="11.2" lengthAdjust="spacing" textLength="88" x="46.8" y="169.9531">String password</text><ellipse cx="39.6" cy="182.0618" fill="none" rx="2.4" ry="2.4" style="stroke:#038048;stroke-width:0.8000000000000002;"/><text fill="#000000" font-family="sans-serif" font-size="11.2" lengthAdjust="spacing" textLength="65.6" x="46.8" y="185.2074">String email</text><ellipse cx="39.6" cy="197.3162" fill="none" rx="2.4" ry="2.4" style="stroke:#038048;stroke-width:0.8000000000000002;"/><text fill="#000000" font-family="sans-serif" font-size="11.2" lengthAdjust="spacing" textLength="87.2" x="46.8" y="200.4617">boolean isActive</text><line style="stroke:#181818;stroke-width:0.4000000000000001;" x1="31.6" x2="147.6" y1="206.9433" y2="206.9433"/></g><!--class RoleUser--><g id="elem_RoleUser"><rect codeLine="15" fill="#F1F1F1" height="68.9087" id="RoleUser" rx="2" ry="2" style="stroke:#181818;stroke-width:0.4000000000000001;" width="108" x="362.8" y="284.2223"/><ellipse cx="390.28" cy="297.0223" fill="#ADD1B2" rx="8.8" ry="8.8" style="stroke:#181818;stroke-width:0.8000000000000002;"/><path d="M390.3675,293.4473 Q389.63,293.4473 389.0425,293.6973 Q388.4675,293.9473 388.0675,294.4223 Q387.6675,294.8848 387.4425,295.5848 Q387.23,296.2848 387.23,297.1598 Q387.23,298.3098 387.58,299.1473 Q387.9425,299.9848 388.6175,300.4223 Q389.305,300.8598 390.355,300.8598 Q390.98,300.8598 391.53,300.7598 Q392.0925,300.6473 392.8925,300.3973 L392.8925,301.8973 Q392.205,302.1598 391.5925,302.2598 Q390.9925,302.3598 390.18,302.3598 Q388.6425,302.3598 387.5925,301.7223 Q386.555,301.0723 386.03,299.8973 Q385.505,298.7098 385.505,297.1348 Q385.505,295.9973 385.8175,295.0598 Q386.1425,294.1098 386.7675,293.4098 Q387.3925,292.7098 388.305,292.3348 Q389.2175,291.9473 390.3925,291.9473 Q391.155,291.9473 391.8675,292.1098 Q392.5925,292.2598 393.3425,292.6348 L392.68,294.0598 Q392.055,293.7598 391.53,293.6098 Q391.005,293.4473 390.3675,293.4473 Z " fill="#000000"/><text fill="#000000" font-family="sans-serif" font-size="11.2" lengthAdjust="spacing" textLength="48" x="404.92" y="301.3679">RoleUser</text><line style="stroke:#181818;stroke-width:0.4000000000000001;" x1="363.6" x2="470" y1="309.8223" y2="309.8223"/><ellipse cx="371.6" cy="321.8495" fill="none" rx="2.4" ry="2.4" style="stroke:#038048;stroke-width:0.8000000000000002;"/><text fill="#000000" font-family="sans-serif" font-size="11.2" lengthAdjust="spacing" textLength="65.6" x="378.8" y="324.9951">Long UserId</text><ellipse cx="371.6" cy="337.1038" fill="none" rx="2.4" ry="2.4" style="stroke:#038048;stroke-width:0.8000000000000002;"/><text fill="#000000" font-family="sans-serif" font-size="11.2" lengthAdjust="spacing" textLength="87.2" x="378.8" y="340.2494">boolean isActive</text><line style="stroke:#181818;stroke-width:0.4000000000000001;" x1="363.6" x2="470" y1="346.731" y2="346.731"/></g><!--class Role--><g id="elem_Role"><rect codeLine="20" fill="#F1F1F1" height="68.9087" id="Role" rx="2" ry="2" style="stroke:#181818;stroke-width:0.4000000000000001;" width="87.2" x="373.2" y="91.0463"/><ellipse cx="402.48" cy="103.8463" fill="#ADD1B2" rx="8.8" ry="8.8" style="stroke:#181818;stroke-width:0.8000000000000002;"/><path d="M402.5675,100.2713 Q401.83,100.2713 401.2425,100.5213 Q400.6675,100.7713 400.2675,101.2463 Q399.8675,101.7088 399.6425,102.4088 Q399.43,103.1088 399.43,103.9838 Q399.43,105.1338 399.78,105.9713 Q400.1425,106.8088 400.8175,107.2463 Q401.505,107.6838 402.555,107.6838 Q403.18,107.6838 403.73,107.5838 Q404.2925,107.4713 405.0925,107.2213 L405.0925,108.7213 Q404.405,108.9838 403.7925,109.0838 Q403.1925,109.1838 402.38,109.1838 Q400.8425,109.1838 399.7925,108.5463 Q398.755,107.8963 398.23,106.7213 Q397.705,105.5338 397.705,103.9588 Q397.705,102.8213 398.0175,101.8838 Q398.3425,100.9338 398.9675,100.2338 Q399.5925,99.5338 400.505,99.1588 Q401.4175,98.7713 402.5925,98.7713 Q403.355,98.7713 404.0675,98.9338 Q404.7925,99.0838 405.5425,99.4588 L404.88,100.8838 Q404.255,100.5838 403.73,100.4338 Q403.205,100.2713 402.5675,100.2713 Z " fill="#000000"/><text fill="#000000" font-family="sans-serif" font-size="11.2" lengthAdjust="spacing" textLength="23.2" x="417.52" y="108.1919">Role</text><line style="stroke:#181818;stroke-width:0.4000000000000001;" x1="374" x2="459.6" y1="116.6463" y2="116.6463"/><ellipse cx="382" cy="128.6735" fill="none" rx="2.4" ry="2.4" style="stroke:#038048;stroke-width:0.8000000000000002;"/><text fill="#000000" font-family="sans-serif" font-size="11.2" lengthAdjust="spacing" textLength="40" x="389.2" y="131.8191">Long id</text><ellipse cx="382" cy="143.9278" fill="none" rx="2.4" ry="2.4" style="stroke:#038048;stroke-width:0.8000000000000002;"/><text fill="#000000" font-family="sans-serif" font-size="11.2" lengthAdjust="spacing" textLength="66.4" x="389.2" y="147.0734">String name</text><line style="stroke:#181818;stroke-width:0.4000000000000001;" x1="374" x2="459.6" y1="153.555" y2="153.555"/></g><!--class Device--><g id="elem_Device"><rect codeLine="25" fill="#F1F1F1" height="114.6717" id="Device" rx="2" ry="2" style="stroke:#181818;stroke-width:0.4000000000000001;" width="131.2" x="517.6" y="68.1583"/><ellipse cx="562.2" cy="80.9583" fill="#ADD1B2" rx="8.8" ry="8.8" style="stroke:#181818;stroke-width:0.8000000000000002;"/><path d="M562.2875,77.3833 Q561.55,77.3833 560.9625,77.6333 Q560.3875,77.8833 559.9875,78.3583 Q559.5875,78.8208 559.3625,79.5208 Q559.15,80.2208 559.15,81.0958 Q559.15,82.2458 559.5,83.0833 Q559.8625,83.9208 560.5375,84.3583 Q561.225,84.7958 562.275,84.7958 Q562.9,84.7958 563.45,84.6958 Q564.0125,84.5833 564.8125,84.3333 L564.8125,85.8333 Q564.125,86.0958 563.5125,86.1958 Q562.9125,86.2958 562.1,86.2958 Q560.5625,86.2958 559.5125,85.6583 Q558.475,85.0083 557.95,83.8333 Q557.425,82.6458 557.425,81.0708 Q557.425,79.9333 557.7375,78.9958 Q558.0625,78.0458 558.6875,77.3458 Q559.3125,76.6458 560.225,76.2708 Q561.1375,75.8833 562.3125,75.8833 Q563.075,75.8833 563.7875,76.0458 Q564.5125,76.1958 565.2625,76.5708 L564.6,77.9958 Q563.975,77.6958 563.45,77.5458 Q562.925,77.3833 562.2875,77.3833 Z " fill="#000000"/><text fill="#000000" font-family="sans-serif" font-size="11.2" lengthAdjust="spacing" textLength="35.2" x="578.6" y="85.3039">Device</text><line style="stroke:#181818;stroke-width:0.4000000000000001;" x1="518.4" x2="648" y1="93.7583" y2="93.7583"/><ellipse cx="526.4" cy="105.7855" fill="none" rx="2.4" ry="2.4" style="stroke:#038048;stroke-width:0.8000000000000002;"/><text fill="#000000" font-family="sans-serif" font-size="11.2" lengthAdjust="spacing" textLength="40" x="533.6" y="108.9311">Long id</text><ellipse cx="526.4" cy="121.0398" fill="none" rx="2.4" ry="2.4" style="stroke:#038048;stroke-width:0.8000000000000002;"/><text fill="#000000" font-family="sans-serif" font-size="11.2" lengthAdjust="spacing" textLength="69.6" x="533.6" y="124.1854">String model</text><ellipse cx="526.4" cy="136.2942" fill="none" rx="2.4" ry="2.4" style="stroke:#038048;stroke-width:0.8000000000000002;"/><text fill="#000000" font-family="sans-serif" font-size="11.2" lengthAdjust="spacing" textLength="110.4" x="533.6" y="139.4397">String serialNumber</text><ellipse cx="526.4" cy="151.5485" fill="none" rx="2.4" ry="2.4" style="stroke:#038048;stroke-width:0.8000000000000002;"/><text fill="#000000" font-family="sans-serif" font-size="11.2" lengthAdjust="spacing" textLength="100.8" x="533.6" y="154.6941">Long deviceTypeId</text><ellipse cx="526.4" cy="166.8028" fill="none" rx="2.4" ry="2.4" style="stroke:#038048;stroke-width:0.8000000000000002;"/><text fill="#000000" font-family="sans-serif" font-size="11.2" lengthAdjust="spacing" textLength="64.8" x="533.6" y="169.9484">Long userId</text><line style="stroke:#181818;stroke-width:0.4000000000000001;" x1="518.4" x2="648" y1="176.43" y2="176.43"/></g><!--class DeviceType--><g id="elem_DeviceType"><rect codeLine="33" fill="#F1F1F1" height="84.163" id="DeviceType" rx="2" ry="2" style="stroke:#181818;stroke-width:0.4000000000000001;" width="168" x="499.2" y="276.5983"/><ellipse cx="549.4" cy="289.3983" fill="#ADD1B2" rx="8.8" ry="8.8" style="stroke:#181818;stroke-width:0.8000000000000002;"/><path d="M549.4875,285.8233 Q548.75,285.8233 548.1625,286.0733 Q547.5875,286.3233 547.1875,286.7983 Q546.7875,287.2608 546.5625,287.9608 Q546.35,288.6608 546.35,289.5358 Q546.35,290.6858 546.7,291.5233 Q547.0625,292.3608 547.7375,292.7983 Q548.425,293.2358 549.475,293.2358 Q550.1,293.2358 550.65,293.1358 Q551.2125,293.0233 552.0125,292.7733 L552.0125,294.2733 Q551.325,294.5358 550.7125,294.6358 Q550.1125,294.7358 549.3,294.7358 Q547.7625,294.7358 546.7125,294.0983 Q545.675,293.4483 545.15,292.2733 Q544.625,291.0858 544.625,289.5108 Q544.625,288.3733 544.9375,287.4358 Q545.2625,286.4858 545.8875,285.7858 Q546.5125,285.0858 547.425,284.7108 Q548.3375,284.3233 549.5125,284.3233 Q550.275,284.3233 550.9875,284.4858 Q551.7125,284.6358 552.4625,285.0108 L551.8,286.4358 Q551.175,286.1358 550.65,285.9858 Q550.125,285.8233 549.4875,285.8233 Z " fill="#000000"/><text fill="#000000" font-family="sans-serif" font-size="11.2" lengthAdjust="spacing" textLength="60.8" x="565.8" y="293.7439">DeviceType</text><line style="stroke:#181818;stroke-width:0.4000000000000001;" x1="500" x2="666.4" y1="302.1983" y2="302.1983"/><ellipse cx="508" cy="314.2255" fill="none" rx="2.4" ry="2.4" style="stroke:#038048;stroke-width:0.8000000000000002;"/><text fill="#000000" font-family="sans-serif" font-size="11.2" lengthAdjust="spacing" textLength="40" x="515.2" y="317.3711">Long id</text><ellipse cx="508" cy="329.4798" fill="none" rx="2.4" ry="2.4" style="stroke:#038048;stroke-width:0.8000000000000002;"/><text fill="#000000" font-family="sans-serif" font-size="11.2" lengthAdjust="spacing" textLength="59.2" x="515.2" y="332.6254">String type</text><ellipse cx="508" cy="344.7342" fill="none" rx="2.4" ry="2.4" style="stroke:#038048;stroke-width:0.8000000000000002;"/><text fill="#000000" font-family="sans-serif" font-size="11.2" lengthAdjust="spacing" textLength="147.2" x="515.2" y="347.8797">LocalDateTime lastUpdated</text><line style="stroke:#181818;stroke-width:0.4000000000000001;" x1="500" x2="666.4" y1="354.3613" y2="354.3613"/></g><!--class Module--><g id="elem_Module"><rect codeLine="39" fill="#F1F1F1" height="99.4173" id="Module" rx="2" ry="2" style="stroke:#181818;stroke-width:0.4000000000000001;" width="168" x="676.8" y="75.7903"/><ellipse cx="737" cy="88.5903" fill="#ADD1B2" rx="8.8" ry="8.8" style="stroke:#181818;stroke-width:0.8000000000000002;"/><path d="M737.0875,85.0153 Q736.35,85.0153 735.7625,85.2653 Q735.1875,85.5153 734.7875,85.9903 Q734.3875,86.4528 734.1625,87.1528 Q733.95,87.8528 733.95,88.7278 Q733.95,89.8778 734.3,90.7153 Q734.6625,91.5528 735.3375,91.9903 Q736.025,92.4278 737.075,92.4278 Q737.7,92.4278 738.25,92.3278 Q738.8125,92.2153 739.6125,91.9653 L739.6125,93.4653 Q738.925,93.7278 738.3125,93.8278 Q737.7125,93.9278 736.9,93.9278 Q735.3625,93.9278 734.3125,93.2903 Q733.275,92.6403 732.75,91.4653 Q732.225,90.2778 732.225,88.7028 Q732.225,87.5653 732.5375,86.6278 Q732.8625,85.6778 733.4875,84.9778 Q734.1125,84.2778 735.025,83.9028 Q735.9375,83.5153 737.1125,83.5153 Q737.875,83.5153 738.5875,83.6778 Q739.3125,83.8278 740.0625,84.2028 L739.4,85.6278 Q738.775,85.3278 738.25,85.1778 Q737.725,85.0153 737.0875,85.0153 Z " fill="#000000"/><text fill="#000000" font-family="sans-serif" font-size="11.2" lengthAdjust="spacing" textLength="40.8" x="753.4" y="92.9359">Module</text><line style="stroke:#181818;stroke-width:0.4000000000000001;" x1="677.6" x2="844" y1="101.3903" y2="101.3903"/><ellipse cx="685.6" cy="113.4175" fill="none" rx="2.4" ry="2.4" style="stroke:#038048;stroke-width:0.8000000000000002;"/><text fill="#000000" font-family="sans-serif" font-size="11.2" lengthAdjust="spacing" textLength="40" x="692.8" y="116.5631">Long id</text><ellipse cx="685.6" cy="128.6718" fill="none" rx="2.4" ry="2.4" style="stroke:#038048;stroke-width:0.8000000000000002;"/><text fill="#000000" font-family="sans-serif" font-size="11.2" lengthAdjust="spacing" textLength="66.4" x="692.8" y="131.8174">String name</text><ellipse cx="685.6" cy="143.9262" fill="none" rx="2.4" ry="2.4" style="stroke:#038048;stroke-width:0.8000000000000002;"/><text fill="#000000" font-family="sans-serif" font-size="11.2" lengthAdjust="spacing" textLength="110.4" x="692.8" y="147.0717">String serialNumber</text><ellipse cx="685.6" cy="159.1805" fill="none" rx="2.4" ry="2.4" style="stroke:#038048;stroke-width:0.8000000000000002;"/><text fill="#000000" font-family="sans-serif" font-size="11.2" lengthAdjust="spacing" textLength="147.2" x="692.8" y="162.3261">LocalDateTime lastUpdated</text><line style="stroke:#181818;stroke-width:0.4000000000000001;" x1="677.6" x2="844" y1="168.8077" y2="168.8077"/></g><!--class DeviceTypeModule--><g id="elem_DeviceTypeModule"><rect codeLine="46" fill="#F1F1F1" height="68.9087" id="DeviceTypeModule" rx="2" ry="2" style="stroke:#181818;stroke-width:0.4000000000000001;" width="127.2" x="696.4" y="284.2223"/><ellipse cx="708.4" cy="297.0223" fill="#ADD1B2" rx="8.8" ry="8.8" style="stroke:#181818;stroke-width:0.8000000000000002;"/><path d="M708.4875,293.4473 Q707.75,293.4473 707.1625,293.6973 Q706.5875,293.9473 706.1875,294.4223 Q705.7875,294.8848 705.5625,295.5848 Q705.35,296.2848 705.35,297.1598 Q705.35,298.3098 705.7,299.1473 Q706.0625,299.9848 706.7375,300.4223 Q707.425,300.8598 708.475,300.8598 Q709.1,300.8598 709.65,300.7598 Q710.2125,300.6473 711.0125,300.3973 L711.0125,301.8973 Q710.325,302.1598 709.7125,302.2598 Q709.1125,302.3598 708.3,302.3598 Q706.7625,302.3598 705.7125,301.7223 Q704.675,301.0723 704.15,299.8973 Q703.625,298.7098 703.625,297.1348 Q703.625,295.9973 703.9375,295.0598 Q704.2625,294.1098 704.8875,293.4098 Q705.5125,292.7098 706.425,292.3348 Q707.3375,291.9473 708.5125,291.9473 Q709.275,291.9473 709.9875,292.1098 Q710.7125,292.2598 711.4625,292.6348 L710.8,294.0598 Q710.175,293.7598 709.65,293.6098 Q709.125,293.4473 708.4875,293.4473 Z " fill="#000000"/><text fill="#000000" font-family="sans-serif" font-size="11.2" lengthAdjust="spacing" textLength="101.6" x="719.6" y="301.3679">DeviceTypeModule</text><line style="stroke:#181818;stroke-width:0.4000000000000001;" x1="697.2" x2="822.8" y1="309.8223" y2="309.8223"/><ellipse cx="705.2" cy="321.8495" fill="none" rx="2.4" ry="2.4" style="stroke:#038048;stroke-width:0.8000000000000002;"/><text fill="#000000" font-family="sans-serif" font-size="11.2" lengthAdjust="spacing" textLength="100.8" x="712.4" y="324.9951">Long deviceTypeId</text><ellipse cx="705.2" cy="337.1038" fill="none" rx="2.4" ry="2.4" style="stroke:#038048;stroke-width:0.8000000000000002;"/><text fill="#000000" font-family="sans-serif" font-size="11.2" lengthAdjust="spacing" textLength="81.6" x="712.4" y="340.2494">Long moduleId</text><line style="stroke:#181818;stroke-width:0.4000000000000001;" x1="697.2" x2="822.8" y1="346.731" y2="346.731"/></g><!--class TelemetryData--><g id="elem_TelemetryData"><rect codeLine="51" fill="#F1F1F1" height="145.1803" id="TelemetryData" rx="2" ry="2" style="stroke:#181818;stroke-width:0.4000000000000001;" width="168" x="176.8" y="52.9103"/><ellipse cx="218.2" cy="65.7103" fill="#ADD1B2" rx="8.8" ry="8.8" style="stroke:#181818;stroke-width:0.8000000000000002;"/><path d="M218.2875,62.1353 Q217.55,62.1353 216.9625,62.3853 Q216.3875,62.6353 215.9875,63.1103 Q215.5875,63.5728 215.3625,64.2728 Q215.15,64.9728 215.15,65.8478 Q215.15,66.9978 215.5,67.8353 Q215.8625,68.6728 216.5375,69.1103 Q217.225,69.5478 218.275,69.5478 Q218.9,69.5478 219.45,69.4478 Q220.0125,69.3353 220.8125,69.0853 L220.8125,70.5853 Q220.125,70.8478 219.5125,70.9478 Q218.9125,71.0478 218.1,71.0478 Q216.5625,71.0478 215.5125,70.4103 Q214.475,69.7603 213.95,68.5853 Q213.425,67.3978 213.425,65.8228 Q213.425,64.6853 213.7375,63.7478 Q214.0625,62.7978 214.6875,62.0978 Q215.3125,61.3978 216.225,61.0228 Q217.1375,60.6353 218.3125,60.6353 Q219.075,60.6353 219.7875,60.7978 Q220.5125,60.9478 221.2625,61.3228 L220.6,62.7478 Q219.975,62.4478 219.45,62.2978 Q218.925,62.1353 218.2875,62.1353 Z " fill="#000000"/><text fill="#000000" font-family="sans-serif" font-size="11.2" lengthAdjust="spacing" textLength="78.4" x="234.6" y="70.0559">TelemetryData</text><line style="stroke:#181818;stroke-width:0.4000000000000001;" x1="177.6" x2="344" y1="78.5103" y2="78.5103"/><ellipse cx="185.6" cy="90.5375" fill="none" rx="2.4" ry="2.4" style="stroke:#038048;stroke-width:0.8000000000000002;"/><text fill="#000000" font-family="sans-serif" font-size="11.2" lengthAdjust="spacing" textLength="40" x="192.8" y="93.6831">Long id</text><ellipse cx="185.6" cy="105.7918" fill="none" rx="2.4" ry="2.4" style="stroke:#038048;stroke-width:0.8000000000000002;"/><text fill="#000000" font-family="sans-serif" font-size="11.2" lengthAdjust="spacing" textLength="64.8" x="192.8" y="108.9374">Long userId</text><ellipse cx="185.6" cy="121.0462" fill="none" rx="2.4" ry="2.4" style="stroke:#038048;stroke-width:0.8000000000000002;"/><text fill="#000000" font-family="sans-serif" font-size="11.2" lengthAdjust="spacing" textLength="75.2" x="192.8" y="124.1917">Long deviceId</text><ellipse cx="185.6" cy="136.3005" fill="none" rx="2.4" ry="2.4" style="stroke:#038048;stroke-width:0.8000000000000002;"/><text fill="#000000" font-family="sans-serif" font-size="11.2" lengthAdjust="spacing" textLength="81.6" x="192.8" y="139.4461">Long moduleId</text><ellipse cx="185.6" cy="151.5548" fill="none" rx="2.4" ry="2.4" style="stroke:#038048;stroke-width:0.8000000000000002;"/><text fill="#000000" font-family="sans-serif" font-size="11.2" lengthAdjust="spacing" textLength="113.6" x="192.8" y="154.7004">String operationType</text><ellipse cx="185.6" cy="166.8092" fill="none" rx="2.4" ry="2.4" style="stroke:#038048;stroke-width:0.8000000000000002;"/><text fill="#000000" font-family="sans-serif" font-size="11.2" lengthAdjust="spacing" textLength="147.2" x="192.8" y="169.9547">LocalDateTime lastUpdated</text><ellipse cx="185.6" cy="182.0635" fill="none" rx="2.4" ry="2.4" style="stroke:#038048;stroke-width:0.8000000000000002;"/><text fill="#000000" font-family="sans-serif" font-size="11.2" lengthAdjust="spacing" textLength="60" x="192.8" y="185.2091">String data</text><line style="stroke:#181818;stroke-width:0.4000000000000001;" x1="177.6" x2="344" y1="191.6907" y2="191.6907"/></g><!--class HeatingSystem--><g id="elem_HeatingSystem"><rect codeLine="61" fill="#F1F1F1" height="99.4173" id="HeatingSystem" rx="2" ry="2" style="stroke:#181818;stroke-width:0.4000000000000001;" width="172" x="873.2" y="75.7903"/><ellipse cx="915.4" cy="88.5903" fill="#ADD1B2" rx="8.8" ry="8.8" style="stroke:#181818;stroke-width:0.8000000000000002;"/><path d="M915.4875,85.0153 Q914.75,85.0153 914.1625,85.2653 Q913.5875,85.5153 913.1875,85.9903 Q912.7875,86.4528 912.5625,87.1528 Q912.35,87.8528 912.35,88.7278 Q912.35,89.8778 912.7,90.7153 Q913.0625,91.5528 913.7375,91.9903 Q914.425,92.4278 915.475,92.4278 Q916.1,92.4278 916.65,92.3278 Q917.2125,92.2153 918.0125,91.9653 L918.0125,93.4653 Q917.325,93.7278 916.7125,93.8278 Q916.1125,93.9278 915.3,93.9278 Q913.7625,93.9278 912.7125,93.2903 Q911.675,92.6403 911.15,91.4653 Q910.625,90.2778 910.625,88.7028 Q910.625,87.5653 910.9375,86.6278 Q911.2625,85.6778 911.8875,84.9778 Q912.5125,84.2778 913.425,83.9028 Q914.3375,83.5153 915.5125,83.5153 Q916.275,83.5153 916.9875,83.6778 Q917.7125,83.8278 918.4625,84.2028 L917.8,85.6278 Q917.175,85.3278 916.65,85.1778 Q916.125,85.0153 915.4875,85.0153 Z " fill="#000000"/><text fill="#000000" font-family="sans-serif" font-size="11.2" lengthAdjust="spacing" textLength="80.8" x="931.8" y="92.9359">HeatingSystem</text><line style="stroke:#181818;stroke-width:0.4000000000000001;" x1="874" x2="1044.4" y1="101.3903" y2="101.3903"/><ellipse cx="882" cy="113.4175" fill="none" rx="2.4" ry="2.4" style="stroke:#038048;stroke-width:0.8000000000000002;"/><text fill="#000000" font-family="sans-serif" font-size="11.2" lengthAdjust="spacing" textLength="40" x="889.2" y="116.5631">Long id</text><ellipse cx="882" cy="128.6718" fill="none" rx="2.4" ry="2.4" style="stroke:#038048;stroke-width:0.8000000000000002;"/><text fill="#000000" font-family="sans-serif" font-size="11.2" lengthAdjust="spacing" textLength="71.2" x="889.2" y="131.8174">boolean isOn</text><ellipse cx="882" cy="143.9262" fill="none" rx="2.4" ry="2.4" style="stroke:#038048;stroke-width:0.8000000000000002;"/><text fill="#000000" font-family="sans-serif" font-size="11.2" lengthAdjust="spacing" textLength="144" x="889.2" y="147.0717">double targetTemperature</text><ellipse cx="882" cy="159.1805" fill="none" rx="2.4" ry="2.4" style="stroke:#038048;stroke-width:0.8000000000000002;"/><text fill="#000000" font-family="sans-serif" font-size="11.2" lengthAdjust="spacing" textLength="151.2" x="889.2" y="162.3261">double currentTemperature</text><line style="stroke:#181818;stroke-width:0.4000000000000001;" x1="874" x2="1044.4" y1="168.8077" y2="168.8077"/></g><!--class TemperatureSensor--><g id="elem_TemperatureSensor"><rect codeLine="68" fill="#F1F1F1" height="84.163" id="TemperatureSensor" rx="2" ry="2" style="stroke:#181818;stroke-width:0.4000000000000001;" width="172" x="873.2" y="276.5983"/><ellipse cx="902.84" cy="289.3983" fill="#ADD1B2" rx="8.8" ry="8.8" style="stroke:#181818;stroke-width:0.8000000000000002;"/><path d="M902.9275,285.8233 Q902.19,285.8233 901.6025,286.0733 Q901.0275,286.3233 900.6275,286.7983 Q900.2275,287.2608 900.0025,287.9608 Q899.79,288.6608 899.79,289.5358 Q899.79,290.6858 900.14,291.5233 Q900.5025,292.3608 901.1775,292.7983 Q901.865,293.2358 902.915,293.2358 Q903.54,293.2358 904.09,293.1358 Q904.6525,293.0233 905.4525,292.7733 L905.4525,294.2733 Q904.765,294.5358 904.1525,294.6358 Q903.5525,294.7358 902.74,294.7358 Q901.2025,294.7358 900.1525,294.0983 Q899.115,293.4483 898.59,292.2733 Q898.065,291.0858 898.065,289.5108 Q898.065,288.3733 898.3775,287.4358 Q898.7025,286.4858 899.3275,285.7858 Q899.9525,285.0858 900.865,284.7108 Q901.7775,284.3233 902.9525,284.3233 Q903.715,284.3233 904.4275,284.4858 Q905.1525,284.6358 905.9025,285.0108 L905.24,286.4358 Q904.615,286.1358 904.09,285.9858 Q903.565,285.8233 902.9275,285.8233 Z " fill="#000000"/><text fill="#000000" font-family="sans-serif" font-size="11.2" lengthAdjust="spacing" textLength="107.2" x="917.96" y="293.7439">TemperatureSensor</text><line style="stroke:#181818;stroke-width:0.4000000000000001;" x1="874" x2="1044.4" y1="302.1983" y2="302.1983"/><ellipse cx="882" cy="314.2255" fill="none" rx="2.4" ry="2.4" style="stroke:#038048;stroke-width:0.8000000000000002;"/><text fill="#000000" font-family="sans-serif" font-size="11.2" lengthAdjust="spacing" textLength="40" x="889.2" y="317.3711">Long id</text><ellipse cx="882" cy="329.4798" fill="none" rx="2.4" ry="2.4" style="stroke:#038048;stroke-width:0.8000000000000002;"/><text fill="#000000" font-family="sans-serif" font-size="11.2" lengthAdjust="spacing" textLength="151.2" x="889.2" y="332.6254">double currentTemperature</text><ellipse cx="882" cy="344.7342" fill="none" rx="2.4" ry="2.4" style="stroke:#038048;stroke-width:0.8000000000000002;"/><text fill="#000000" font-family="sans-serif" font-size="11.2" lengthAdjust="spacing" textLength="147.2" x="889.2" y="347.8797">LocalDateTime lastUpdated</text><line style="stroke:#181818;stroke-width:0.4000000000000001;" x1="874" x2="1044.4" y1="354.3613" y2="354.3613"/></g><!--class AutomaticGate--><g id="elem_AutomaticGate"><rect codeLine="74" fill="#F1F1F1" height="84.163" id="AutomaticGate" rx="2" ry="2" style="stroke:#181818;stroke-width:0.4000000000000001;" width="168" x="1073.6" y="83.4143"/><ellipse cx="1114.6" cy="96.2143" fill="#ADD1B2" rx="8.8" ry="8.8" style="stroke:#181818;stroke-width:0.8000000000000002;"/><path d="M1114.6875,92.6393 Q1113.95,92.6393 1113.3625,92.8893 Q1112.7875,93.1393 1112.3875,93.6143 Q1111.9875,94.0768 1111.7625,94.7768 Q1111.55,95.4768 1111.55,96.3518 Q1111.55,97.5018 1111.9,98.3393 Q1112.2625,99.1768 1112.9375,99.6143 Q1113.625,100.0518 1114.675,100.0518 Q1115.3,100.0518 1115.85,99.9518 Q1116.4125,99.8393 1117.2125,99.5893 L1117.2125,101.0893 Q1116.525,101.3518 1115.9125,101.4518 Q1115.3125,101.5518 1114.5,101.5518 Q1112.9625,101.5518 1111.9125,100.9143 Q1110.875,100.2643 1110.35,99.0893 Q1109.825,97.9018 1109.825,96.3268 Q1109.825,95.1893 1110.1375,94.2518 Q1110.4625,93.3018 1111.0875,92.6018 Q1111.7125,91.9018 1112.625,91.5268 Q1113.5375,91.1393 1114.7125,91.1393 Q1115.475,91.1393 1116.1875,91.3018 Q1116.9125,91.4518 1117.6625,91.8268 L1117,93.2518 Q1116.375,92.9518 1115.85,92.8018 Q1115.325,92.6393 1114.6875,92.6393 Z " fill="#000000"/><text fill="#000000" font-family="sans-serif" font-size="11.2" lengthAdjust="spacing" textLength="79.2" x="1131" y="100.5599">AutomaticGate</text><line style="stroke:#181818;stroke-width:0.4000000000000001;" x1="1074.4" x2="1240.8" y1="109.0143" y2="109.0143"/><ellipse cx="1082.4" cy="121.0415" fill="none" rx="2.4" ry="2.4" style="stroke:#038048;stroke-width:0.8000000000000002;"/><text fill="#000000" font-family="sans-serif" font-size="11.2" lengthAdjust="spacing" textLength="40" x="1089.6" y="124.1871">Long id</text><ellipse cx="1082.4" cy="136.2958" fill="none" rx="2.4" ry="2.4" style="stroke:#038048;stroke-width:0.8000000000000002;"/><text fill="#000000" font-family="sans-serif" font-size="11.2" lengthAdjust="spacing" textLength="84.8" x="1089.6" y="139.4414">boolean isOpen</text><ellipse cx="1082.4" cy="151.5502" fill="none" rx="2.4" ry="2.4" style="stroke:#038048;stroke-width:0.8000000000000002;"/><text fill="#000000" font-family="sans-serif" font-size="11.2" lengthAdjust="spacing" textLength="147.2" x="1089.6" y="154.6957">LocalDateTime lastUpdated</text><line style="stroke:#181818;stroke-width:0.4000000000000001;" x1="1074.4" x2="1240.8" y1="161.1773" y2="161.1773"/></g><!--class InterrupterSensor--><g id="elem_InterrupterSensor"><rect codeLine="80" fill="#F1F1F1" height="114.6717" id="InterrupterSensor" rx="2" ry="2" style="stroke:#181818;stroke-width:0.4000000000000001;" width="168" x="1073.6" y="261.3423"/><ellipse cx="1105.76" cy="274.1423" fill="#ADD1B2" rx="8.8" ry="8.8" style="stroke:#181818;stroke-width:0.8000000000000002;"/><path d="M1105.8475,270.5673 Q1105.11,270.5673 1104.5225,270.8173 Q1103.9475,271.0673 1103.5475,271.5423 Q1103.1475,272.0048 1102.9225,272.7048 Q1102.71,273.4048 1102.71,274.2798 Q1102.71,275.4298 1103.06,276.2673 Q1103.4225,277.1048 1104.0975,277.5423 Q1104.785,277.9798 1105.835,277.9798 Q1106.46,277.9798 1107.01,277.8798 Q1107.5725,277.7673 1108.3725,277.5173 L1108.3725,279.0173 Q1107.685,279.2798 1107.0725,279.3798 Q1106.4725,279.4798 1105.66,279.4798 Q1104.1225,279.4798 1103.0725,278.8423 Q1102.035,278.1923 1101.51,277.0173 Q1100.985,275.8298 1100.985,274.2548 Q1100.985,273.1173 1101.2975,272.1798 Q1101.6225,271.2298 1102.2475,270.5298 Q1102.8725,269.8298 1103.785,269.4548 Q1104.6975,269.0673 1105.8725,269.0673 Q1106.635,269.0673 1107.3475,269.2298 Q1108.0725,269.3798 1108.8225,269.7548 L1108.16,271.1798 Q1107.535,270.8798 1107.01,270.7298 Q1106.485,270.5673 1105.8475,270.5673 Z " fill="#000000"/><text fill="#000000" font-family="sans-serif" font-size="11.2" lengthAdjust="spacing" textLength="97.6" x="1121.44" y="278.4879">InterrupterSensor</text><line style="stroke:#181818;stroke-width:0.4000000000000001;" x1="1074.4" x2="1240.8" y1="286.9423" y2="286.9423"/><ellipse cx="1082.4" cy="298.9695" fill="none" rx="2.4" ry="2.4" style="stroke:#038048;stroke-width:0.8000000000000002;"/><text fill="#000000" font-family="sans-serif" font-size="11.2" lengthAdjust="spacing" textLength="40" x="1089.6" y="302.1151">Long id</text><ellipse cx="1082.4" cy="314.2238" fill="none" rx="2.4" ry="2.4" style="stroke:#038048;stroke-width:0.8000000000000002;"/><text fill="#000000" font-family="sans-serif" font-size="11.2" lengthAdjust="spacing" textLength="66.4" x="1089.6" y="317.3694">String name</text><ellipse cx="1082.4" cy="329.4782" fill="none" rx="2.4" ry="2.4" style="stroke:#038048;stroke-width:0.8000000000000002;"/><text fill="#000000" font-family="sans-serif" font-size="11.2" lengthAdjust="spacing" textLength="108" x="1089.6" y="332.6237">double currentState</text><ellipse cx="1082.4" cy="344.7325" fill="none" rx="2.4" ry="2.4" style="stroke:#038048;stroke-width:0.8000000000000002;"/><text fill="#000000" font-family="sans-serif" font-size="11.2" lengthAdjust="spacing" textLength="147.2" x="1089.6" y="347.8781">LocalDateTime lastUpdated</text><ellipse cx="1082.4" cy="359.9868" fill="none" rx="2.4" ry="2.4" style="stroke:#038048;stroke-width:0.8000000000000002;"/><text fill="#000000" font-family="sans-serif" font-size="11.2" lengthAdjust="spacing" textLength="119.2" x="1089.6" y="363.1324">Long automaticGateId</text><line style="stroke:#181818;stroke-width:0.4000000000000001;" x1="1074.4" x2="1240.8" y1="369.614" y2="369.614"/></g><!--class lighting--><g id="elem_lighting"><rect codeLine="88" fill="#F1F1F1" height="84.163" id="lighting" rx="2" ry="2" style="stroke:#181818;stroke-width:0.4000000000000001;" width="168" x="1269.6" y="83.4143"/><ellipse cx="1329" cy="96.2143" fill="#ADD1B2" rx="8.8" ry="8.8" style="stroke:#181818;stroke-width:0.8000000000000002;"/><path d="M1329.0875,92.6393 Q1328.35,92.6393 1327.7625,92.8893 Q1327.1875,93.1393 1326.7875,93.6143 Q1326.3875,94.0768 1326.1625,94.7768 Q1325.95,95.4768 1325.95,96.3518 Q1325.95,97.5018 1326.3,98.3393 Q1326.6625,99.1768 1327.3375,99.6143 Q1328.025,100.0518 1329.075,100.0518 Q1329.7,100.0518 1330.25,99.9518 Q1330.8125,99.8393 1331.6125,99.5893 L1331.6125,101.0893 Q1330.925,101.3518 1330.3125,101.4518 Q1329.7125,101.5518 1328.9,101.5518 Q1327.3625,101.5518 1326.3125,100.9143 Q1325.275,100.2643 1324.75,99.0893 Q1324.225,97.9018 1324.225,96.3268 Q1324.225,95.1893 1324.5375,94.2518 Q1324.8625,93.3018 1325.4875,92.6018 Q1326.1125,91.9018 1327.025,91.5268 Q1327.9375,91.1393 1329.1125,91.1393 Q1329.875,91.1393 1330.5875,91.3018 Q1331.3125,91.4518 1332.0625,91.8268 L1331.4,93.2518 Q1330.775,92.9518 1330.25,92.8018 Q1329.725,92.6393 1329.0875,92.6393 Z " fill="#000000"/><text fill="#000000" font-family="sans-serif" font-size="11.2" lengthAdjust="spacing" textLength="42.4" x="1345.4" y="100.5599">lighting</text><line style="stroke:#181818;stroke-width:0.4000000000000001;" x1="1270.4" x2="1436.8" y1="109.0143" y2="109.0143"/><ellipse cx="1278.4" cy="121.0415" fill="none" rx="2.4" ry="2.4" style="stroke:#038048;stroke-width:0.8000000000000002;"/><text fill="#000000" font-family="sans-serif" font-size="11.2" lengthAdjust="spacing" textLength="40" x="1285.6" y="124.1871">Long id</text><ellipse cx="1278.4" cy="136.2958" fill="none" rx="2.4" ry="2.4" style="stroke:#038048;stroke-width:0.8000000000000002;"/><text fill="#000000" font-family="sans-serif" font-size="11.2" lengthAdjust="spacing" textLength="71.2" x="1285.6" y="139.4414">boolean isOn</text><ellipse cx="1278.4" cy="151.5502" fill="none" rx="2.4" ry="2.4" style="stroke:#038048;stroke-width:0.8000000000000002;"/><text fill="#000000" font-family="sans-serif" font-size="11.2" lengthAdjust="spacing" textLength="147.2" x="1285.6" y="154.6957">LocalDateTime lastUpdated</text><line style="stroke:#181818;stroke-width:0.4000000000000001;" x1="1270.4" x2="1436.8" y1="161.1773" y2="161.1773"/></g><!--class lightingSensor--><g id="elem_lightingSensor"><rect codeLine="94" fill="#F1F1F1" height="99.4173" id="lightingSensor" rx="2" ry="2" style="stroke:#181818;stroke-width:0.4000000000000001;" width="168" x="1269.6" y="268.9663"/><ellipse cx="1310.6" cy="281.7663" fill="#ADD1B2" rx="8.8" ry="8.8" style="stroke:#181818;stroke-width:0.8000000000000002;"/><path d="M1310.6875,278.1913 Q1309.95,278.1913 1309.3625,278.4413 Q1308.7875,278.6913 1308.3875,279.1663 Q1307.9875,279.6288 1307.7625,280.3288 Q1307.55,281.0288 1307.55,281.9038 Q1307.55,283.0538 1307.9,283.8913 Q1308.2625,284.7288 1308.9375,285.1663 Q1309.625,285.6038 1310.675,285.6038 Q1311.3,285.6038 1311.85,285.5038 Q1312.4125,285.3913 1313.2125,285.1413 L1313.2125,286.6413 Q1312.525,286.9038 1311.9125,287.0038 Q1311.3125,287.1038 1310.5,287.1038 Q1308.9625,287.1038 1307.9125,286.4663 Q1306.875,285.8163 1306.35,284.6413 Q1305.825,283.4538 1305.825,281.8788 Q1305.825,280.7413 1306.1375,279.8038 Q1306.4625,278.8538 1307.0875,278.1538 Q1307.7125,277.4538 1308.625,277.0788 Q1309.5375,276.6913 1310.7125,276.6913 Q1311.475,276.6913 1312.1875,276.8538 Q1312.9125,277.0038 1313.6625,277.3788 L1313,278.8038 Q1312.375,278.5038 1311.85,278.3538 Q1311.325,278.1913 1310.6875,278.1913 Z " fill="#000000"/><text fill="#000000" font-family="sans-serif" font-size="11.2" lengthAdjust="spacing" textLength="79.2" x="1327" y="286.1119">lightingSensor</text><line style="stroke:#181818;stroke-width:0.4000000000000001;" x1="1270.4" x2="1436.8" y1="294.5663" y2="294.5663"/><ellipse cx="1278.4" cy="306.5935" fill="none" rx="2.4" ry="2.4" style="stroke:#038048;stroke-width:0.8000000000000002;"/><text fill="#000000" font-family="sans-serif" font-size="11.2" lengthAdjust="spacing" textLength="40" x="1285.6" y="309.7391">Long id</text><ellipse cx="1278.4" cy="321.8478" fill="none" rx="2.4" ry="2.4" style="stroke:#038048;stroke-width:0.8000000000000002;"/><text fill="#000000" font-family="sans-serif" font-size="11.2" lengthAdjust="spacing" textLength="66.4" x="1285.6" y="324.9934">String name</text><ellipse cx="1278.4" cy="337.1022" fill="none" rx="2.4" ry="2.4" style="stroke:#038048;stroke-width:0.8000000000000002;"/><text fill="#000000" font-family="sans-serif" font-size="11.2" lengthAdjust="spacing" textLength="108" x="1285.6" y="340.2477">double currentState</text><ellipse cx="1278.4" cy="352.3565" fill="none" rx="2.4" ry="2.4" style="stroke:#038048;stroke-width:0.8000000000000002;"/><text fill="#000000" font-family="sans-serif" font-size="11.2" lengthAdjust="spacing" textLength="147.2" x="1285.6" y="355.5021">LocalDateTime lastUpdated</text><line style="stroke:#181818;stroke-width:0.4000000000000001;" x1="1270.4" x2="1436.8" y1="361.9837" y2="361.9837"/></g><!--class HouseSurveillance--><g id="elem_HouseSurveillance"><rect codeLine="101" fill="#F1F1F1" height="84.163" id="HouseSurveillance" rx="2" ry="2" style="stroke:#181818;stroke-width:0.4000000000000001;" width="168" x="5.6" y="276.5983"/><ellipse cx="37.04" cy="289.3983" fill="#ADD1B2" rx="8.8" ry="8.8" style="stroke:#181818;stroke-width:0.8000000000000002;"/><path d="M37.1275,285.8233 Q36.39,285.8233 35.8025,286.0733 Q35.2275,286.3233 34.8275,286.7983 Q34.4275,287.2608 34.2025,287.9608 Q33.99,288.6608 33.99,289.5358 Q33.99,290.6858 34.34,291.5233 Q34.7025,292.3608 35.3775,292.7983 Q36.065,293.2358 37.115,293.2358 Q37.74,293.2358 38.29,293.1358 Q38.8525,293.0233 39.6525,292.7733 L39.6525,294.2733 Q38.965,294.5358 38.3525,294.6358 Q37.7525,294.7358 36.94,294.7358 Q35.4025,294.7358 34.3525,294.0983 Q33.315,293.4483 32.79,292.2733 Q32.265,291.0858 32.265,289.5108 Q32.265,288.3733 32.5775,287.4358 Q32.9025,286.4858 33.5275,285.7858 Q34.1525,285.0858 35.065,284.7108 Q35.9775,284.3233 37.1525,284.3233 Q37.915,284.3233 38.6275,284.4858 Q39.3525,284.6358 40.1025,285.0108 L39.44,286.4358 Q38.815,286.1358 38.29,285.9858 Q37.765,285.8233 37.1275,285.8233 Z " fill="#000000"/><text fill="#000000" font-family="sans-serif" font-size="11.2" lengthAdjust="spacing" textLength="99.2" x="52.56" y="293.7439">HouseSurveillance</text><line style="stroke:#181818;stroke-width:0.4000000000000001;" x1="6.4" x2="172.8" y1="302.1983" y2="302.1983"/><ellipse cx="14.4" cy="314.2255" fill="none" rx="2.4" ry="2.4" style="stroke:#038048;stroke-width:0.8000000000000002;"/><text fill="#000000" font-family="sans-serif" font-size="11.2" lengthAdjust="spacing" textLength="40" x="21.6" y="317.3711">Long id</text><ellipse cx="14.4" cy="329.4798" fill="none" rx="2.4" ry="2.4" style="stroke:#038048;stroke-width:0.8000000000000002;"/><text fill="#000000" font-family="sans-serif" font-size="11.2" lengthAdjust="spacing" textLength="147.2" x="21.6" y="332.6254">boolean isActiveMonitoring</text><ellipse cx="14.4" cy="344.7342" fill="none" rx="2.4" ry="2.4" style="stroke:#038048;stroke-width:0.8000000000000002;"/><text fill="#000000" font-family="sans-serif" font-size="11.2" lengthAdjust="spacing" textLength="132.8" x="21.6" y="347.8797">LocalDateTime lastActive</text><line style="stroke:#181818;stroke-width:0.4000000000000001;" x1="6.4" x2="172.8" y1="354.3613" y2="354.3613"/></g><!--link Device to DeviceType--><g id="link_Device_DeviceType"><path codeLine="107" d="M583.2,189.3983 C583.2,219.3023 583.2,242.5343 583.2,269.8383 " fill="none" id="Device-DeviceType" style="stroke:#181818;stroke-width:0.8000000000000002;stroke-dasharray:7.0,7.0;"/><line style="stroke:#181818;stroke-width:0.8000000000000002;" x1="583.2" x2="578.4" y1="189.3983" y2="182.9983"/><line style="stroke:#181818;stroke-width:0.8000000000000002;" x1="583.2" x2="588" y1="189.3983" y2="182.9983"/><line style="stroke:#181818;stroke-width:0.8000000000000002;" x1="583.2" x2="583.2" y1="189.3983" y2="182.9983"/><line style="stroke:#181818;stroke-width:0.8000000000000002;" x1="580" x2="586.4" y1="190.9983" y2="190.9983"/><line style="stroke:#181818;stroke-width:0.8000000000000002;" x1="586.4" x2="580" y1="273.0383" y2="273.0383"/><line style="stroke:#181818;stroke-width:0.8000000000000002;" x1="586.4" x2="580" y1="270.6383" y2="270.6383"/><line style="stroke:#181818;stroke-width:0.8000000000000002;" x1="583.2" x2="583.2" y1="269.8383" y2="276.2383"/></g><!--link Device to DeviceTypeModule--><g id="link_Device_DeviceTypeModule"><path codeLine="108" d="M638.9591,187.7765 C648.1751,197.8885 653.4,203.5743 662.4,213.3423 C684.192,236.9823 704.5345,258.7935 723.6465,279.1775 " fill="none" id="Device-DeviceTypeModule" style="stroke:#181818;stroke-width:0.8000000000000002;stroke-dasharray:7.0,7.0;"/><line style="stroke:#181818;stroke-width:0.8000000000000002;" x1="634.4384" x2="639.1686" y1="187.567" y2="183.2559"/><line style="stroke:#181818;stroke-width:0.8000000000000002;" x1="636.0551" x2="640.7853" y1="189.3408" y2="185.0297"/><line style="stroke:#181818;stroke-width:0.8000000000000002;" x1="638.9591" x2="634.648" y1="187.7765" y2="183.0463"/><line style="stroke:#181818;stroke-width:0.8000000000000002;" x1="723.6465" x2="731.5256" y1="279.1775" y2="280.5632"/><line style="stroke:#181818;stroke-width:0.8000000000000002;" x1="723.6465" x2="724.5224" y1="279.1775" y2="287.1294"/><line style="stroke:#181818;stroke-width:0.8000000000000002;" x1="723.6465" x2="728.024" y1="279.1775" y2="283.8463"/><line style="stroke:#181818;stroke-width:0.8000000000000002;" x1="724.8866" x2="720.2178" y1="275.8216" y2="280.1991"/></g><!--link Module to DeviceTypeModule--><g id="link_Module_DeviceTypeModule"><path codeLine="109" d="M760.5664,181.7823 C760.4304,215.8223 760.2895,247.4704 760.1695,277.6064 " fill="none" id="Module-DeviceTypeModule" style="stroke:#181818;stroke-width:0.8000000000000002;stroke-dasharray:7.0,7.0;"/><line style="stroke:#181818;stroke-width:0.8000000000000002;" x1="757.3792" x2="763.7792" y1="178.5695" y2="178.5951"/><line style="stroke:#181818;stroke-width:0.8000000000000002;" x1="757.3697" x2="763.7696" y1="180.9695" y2="180.9951"/><line style="stroke:#181818;stroke-width:0.8000000000000002;" x1="760.5664" x2="760.592" y1="181.7823" y2="175.3823"/><line style="stroke:#181818;stroke-width:0.8000000000000002;" x1="760.1695" x2="764.944" y1="277.6064" y2="284.0254"/><line style="stroke:#181818;stroke-width:0.8000000000000002;" x1="760.1695" x2="755.344" y1="277.6064" y2="283.9872"/><line style="stroke:#181818;stroke-width:0.8000000000000002;" x1="760.1695" x2="760.144" y1="277.6064" y2="284.0063"/><line style="stroke:#181818;stroke-width:0.8000000000000002;" x1="763.3758" x2="756.9759" y1="276.0191" y2="275.9937"/></g><!--link Role to RoleUser--><g id="link_Role_RoleUser"><path codeLine="110" d="M416.8,166.7263 C416.8,201.5663 416.8,242.6063 416.8,277.4463 " fill="none" id="Role-RoleUser" style="stroke:#181818;stroke-width:0.8000000000000002;stroke-dasharray:7.0,7.0;"/><line style="stroke:#181818;stroke-width:0.8000000000000002;" x1="413.6" x2="420" y1="163.5263" y2="163.5263"/><line style="stroke:#181818;stroke-width:0.8000000000000002;" x1="413.6" x2="420" y1="165.9263" y2="165.9263"/><line style="stroke:#181818;stroke-width:0.8000000000000002;" x1="416.8" x2="416.8" y1="166.7263" y2="160.3263"/><line style="stroke:#181818;stroke-width:0.8000000000000002;" x1="416.8" x2="421.6" y1="277.4463" y2="283.8463"/><line style="stroke:#181818;stroke-width:0.8000000000000002;" x1="416.8" x2="412" y1="277.4463" y2="283.8463"/><line style="stroke:#181818;stroke-width:0.8000000000000002;" x1="416.8" x2="416.8" y1="277.4463" y2="283.8463"/><line style="stroke:#181818;stroke-width:0.8000000000000002;" x1="420" x2="413.6" y1="275.8463" y2="275.8463"/></g><!--link AutomaticGate to InterrupterSensor--><g id="link_AutomaticGate_InterrupterSensor"><path codeLine="111" d="M1157.6,174.2703 C1157.6,201.5583 1157.6,224.8063 1157.6,254.7263 " fill="none" id="AutomaticGate-InterrupterSensor" style="stroke:#181818;stroke-width:0.8000000000000002;stroke-dasharray:7.0,7.0;"/><line style="stroke:#181818;stroke-width:0.8000000000000002;" x1="1154.4" x2="1160.8" y1="171.0703" y2="171.0703"/><line style="stroke:#181818;stroke-width:0.8000000000000002;" x1="1154.4" x2="1160.8" y1="173.4703" y2="173.4703"/><line style="stroke:#181818;stroke-width:0.8000000000000002;" x1="1157.6" x2="1157.6" y1="174.2703" y2="167.8703"/><line style="stroke:#181818;stroke-width:0.8000000000000002;" x1="1157.6" x2="1162.4" y1="254.7263" y2="261.1263"/><line style="stroke:#181818;stroke-width:0.8000000000000002;" x1="1157.6" x2="1152.8" y1="254.7263" y2="261.1263"/><line style="stroke:#181818;stroke-width:0.8000000000000002;" x1="1157.6" x2="1157.6" y1="254.7263" y2="261.1263"/><line style="stroke:#181818;stroke-width:0.8000000000000002;" x1="1160.8" x2="1154.4" y1="253.1263" y2="253.1263"/></g><!--link lighting to lightingSensor--><g id="link_lighting_lightingSensor"><path codeLine="112" d="M1353.6,174.2703 C1353.6,203.8703 1353.6,230.9743 1353.6,262.1903 " fill="none" id="lighting-lightingSensor" style="stroke:#181818;stroke-width:0.8000000000000002;stroke-dasharray:7.0,7.0;"/><line style="stroke:#181818;stroke-width:0.8000000000000002;" x1="1350.4" x2="1356.8" y1="171.0703" y2="171.0703"/><line style="stroke:#181818;stroke-width:0.8000000000000002;" x1="1350.4" x2="1356.8" y1="173.4703" y2="173.4703"/><line style="stroke:#181818;stroke-width:0.8000000000000002;" x1="1353.6" x2="1353.6" y1="174.2703" y2="167.8703"/><line style="stroke:#181818;stroke-width:0.8000000000000002;" x1="1353.6" x2="1358.4" y1="262.1903" y2="268.5903"/><line style="stroke:#181818;stroke-width:0.8000000000000002;" x1="1353.6" x2="1348.8" y1="262.1903" y2="268.5903"/><line style="stroke:#181818;stroke-width:0.8000000000000002;" x1="1353.6" x2="1353.6" y1="262.1903" y2="268.5903"/><line style="stroke:#181818;stroke-width:0.8000000000000002;" x1="1356.8" x2="1350.4" y1="260.5903" y2="260.5903"/></g><!--link HeatingSystem to TemperatureSensor--><g id="link_HeatingSystem_TemperatureSensor"><path codeLine="113" d="M959.2,181.7823 C959.2,213.0463 959.2,240.3023 959.2,269.9743 " fill="none" id="HeatingSystem-TemperatureSensor" style="stroke:#181818;stroke-width:0.8000000000000002;stroke-dasharray:7.0,7.0;"/><line style="stroke:#181818;stroke-width:0.8000000000000002;" x1="956" x2="962.4" y1="178.5823" y2="178.5823"/><line style="stroke:#181818;stroke-width:0.8000000000000002;" x1="956" x2="962.4" y1="180.9823" y2="180.9823"/><line style="stroke:#181818;stroke-width:0.8000000000000002;" x1="959.2" x2="959.2" y1="181.7823" y2="175.3823"/><line style="stroke:#181818;stroke-width:0.8000000000000002;" x1="959.2" x2="964" y1="269.9743" y2="276.3743"/><line style="stroke:#181818;stroke-width:0.8000000000000002;" x1="959.2" x2="954.4" y1="269.9743" y2="276.3743"/><line style="stroke:#181818;stroke-width:0.8000000000000002;" x1="959.2" x2="959.2" y1="269.9743" y2="276.3743"/><line style="stroke:#181818;stroke-width:0.8000000000000002;" x1="962.4" x2="956" y1="268.3743" y2="268.3743"/></g><!--SRC=[jLHBZjim3Dth5DeNc3iC6g0pGDC2jUS0Z4qu0YJHaAWKmMJkNjfnOZcEusowCSoF7lduOyCMTU4Wy1ivt98dQtYlj-2XGOUUzNUgKMyCD06SKfM56FL7nA0_bTRVVf9ljAcxtuA34S63mqoCATneMk10_kXCbIltv7CdIutnaqSn_gMG1q87ndRoZiWYU6tYQyNcWEhhakSVCTpasedlzVgpX_IkdXiyc6hHrqdfR5uB30Rih-Hs6AulwXwYFBPuJgjNfdEMDt4wfwLOBBQpfGAx0SRIEDJoc3_QMiGCR4jrMY7uAETL_37PMQIxP5tlbTCjqShmSJXA89WbcbTe2dmFTAH2BGPWGxvShTNuI6GO4tj30V1DSOoCRfROE56_-zcjAUs4FaDea4jqVVmKCBDLAGJPijoOLU6gBD17cg_SCiXpdNfDJ4uOLJz4_uXEY_v9o7VF649gvRkGzCsSJJaKB72hlUdH84y-dnvhcdtNfTN-F47dWlMVk8o3HJBGHGe7DDQ2hnvrutokv5ORfYxy_H3ZKHkErDVfvULqohRpOZXrXi_PsgfXUvVC_PKSZ9T3gwOJDLXdCw6kBHeyfcLMqpKRV6RheFu1]--></g></svg>